<svg xmlns="http://www.w3.org/2000/svg" viewBox="0 0 128 128" role="img" aria-label="Cinder play bow">
  <ellipse cx="64" cy="102" rx="36" ry="8" fill="#1a1218" opacity="0.15"/>
  <path d="M34 78 Q28 96 38 108 Q52 112 64 108 Q76 112 90 108 Q100 96 94 78 Z" fill="#1f151c"/>
  <path d="M48 70 Q64 58 80 70 L78 82 Q64 88 50 82 Z" fill="#2a1f28" transform="rotate(18 64 74)"/>
  <path d="M42 64 L36 48 L50 58 Z" fill="#2a1f28" transform="rotate(24 44 56)"/>
  <path d="M86 64 L92 48 L78 58 Z" fill="#2a1f28" transform="rotate(-24 84 56)"/>
  <circle cx="52" cy="76" r="4" fill="#f5d4e8"/>
  <circle cx="76" cy="76" r="4" fill="#f5d4e8"/>
  <circle cx="53" cy="75" r="2" fill="#1a1218"/>
  <circle cx="77" cy="75" r="2" fill="#1a1218"/>
  <path d="M30 92 L24 108" stroke="#1f151c" stroke-width="7" stroke-linecap="round"/>
  <path d="M98 92 L104 108" stroke="#1f151c" stroke-width="7" stroke-linecap="round"/>
  <path d="M64 88 Q72 96 80 104" stroke="#1f151c" stroke-width="7" fill="none" stroke-linecap="round"/>
</svg>
