<svg xmlns="http://www.w3.org/2000/svg" viewBox="0 0 128 128" role="img" aria-label="Cinder standing">
  <ellipse cx="64" cy="98" rx="34" ry="8" fill="#1a1218" opacity="0.15"/>
  <path d="M38 72 Q30 88 36 102 Q48 108 64 104 Q80 108 92 102 Q98 88 90 72 Z" fill="#1f151c"/>
  <path d="M44 58 Q64 42 84 58 L82 78 Q64 86 46 78 Z" fill="#2a1f28"/>
  <path d="M40 52 L34 34 L48 46 Z" fill="#2a1f28"/>
  <path d="M88 52 L94 34 L80 46 Z" fill="#2a1f28"/>
  <circle cx="54" cy="64" r="5" fill="#f5d4e8"/>
  <circle cx="74" cy="64" r="5" fill="#f5d4e8"/>
  <circle cx="55" cy="63" r="2.5" fill="#1a1218"/>
  <circle cx="75" cy="63" r="2.5" fill="#1a1218"/>
  <path d="M58 74 Q64 78 70 74" stroke="#d07098" stroke-width="2" fill="none" stroke-linecap="round"/>
  <path d="M28 82 Q18 70 24 58" stroke="#1f151c" stroke-width="8" fill="none" stroke-linecap="round"/>
  <path d="M100 82 Q110 70 104 58" stroke="#1f151c" stroke-width="8" fill="none" stroke-linecap="round"/>
</svg>
