<svg xmlns="http://www.w3.org/2000/svg" viewBox="0 0 128 128" role="img" aria-label="Cinder walking">
  <ellipse cx="64" cy="100" rx="32" ry="7" fill="#1a1218" opacity="0.15"/>
  <path d="M40 74 Q34 90 40 102 Q52 106 64 102 Q76 106 88 102 Q94 90 88 74 Z" fill="#1f151c"/>
  <path d="M46 60 Q64 46 82 60 L80 78 Q64 84 48 78 Z" fill="#2a1f28"/>
  <path d="M42 54 L36 38 L50 50 Z" fill="#2a1f28"/>
  <path d="M86 54 L92 38 L78 50 Z" fill="#2a1f28"/>
  <circle cx="54" cy="66" r="4.5" fill="#f5d4e8"/><circle cx="74" cy="66" r="4.5" fill="#f5d4e8"/>
  <circle cx="55" cy="65" r="2.2" fill="#1a1218"/><circle cx="75" cy="65" r="2.2" fill="#1a1218"/>
  <path d="M92 96 L98 108" stroke="#1f151c" stroke-width="6" stroke-linecap="round"/>
  <path d="M36 88 L30 100" stroke="#1f151c" stroke-width="6" stroke-linecap="round"/>
  <path d="M24 76 Q16 68 20 56" stroke="#1f151c" stroke-width="7" fill="none" stroke-linecap="round"/>
</svg>
