<svg xmlns="http://www.w3.org/2000/svg" viewBox="0 0 128 128" role="img" aria-label="Cinder walking">
  <ellipse cx="64" cy="100" rx="32" ry="7" fill="#1a1218" opacity="0.15"/>
  <path d="M40 72 Q36 88 42 102 Q54 106 64 102 Q74 106 86 102 Q92 88 88 72 Z" fill="#1f151c"/>
  <path d="M46 58 Q64 44 82 58 L80 76 Q64 82 48 76 Z" fill="#2a1f28"/>
  <path d="M42 52 L36 36 L50 48 Z" fill="#2a1f28"/>
  <path d="M86 52 L92 36 L78 48 Z" fill="#2a1f28"/>
  <circle cx="54" cy="64" r="4.5" fill="#f5d4e8"/><circle cx="74" cy="64" r="4.5" fill="#f5d4e8"/>
  <circle cx="55" cy="63" r="2.2" fill="#1a1218"/><circle cx="75" cy="63" r="2.2" fill="#1a1218"/>
  <path d="M94 90 L100 102" stroke="#1f151c" stroke-width="6" stroke-linecap="round"/>
  <path d="M34 94 L28 106" stroke="#1f151c" stroke-width="6" stroke-linecap="round"/>
  <path d="M22 74 Q14 66 18 54" stroke="#1f151c" stroke-width="7" fill="none" stroke-linecap="round"/>
</svg>
